<svg width="30" height="33" viewBox="0 0 30 33" fill="none" xmlns="http://www.w3.org/2000/svg">
<g clip-path="url(#clip0)">
<path d="M27.1875 4.06641H2.81252C1.2616 4.06641 0 5.43441 0 7.11613V25.4143C0 27.096 1.2616 28.464 2.81252 28.464H27.1875C28.7384 28.464 30 27.096 30 25.4143V7.11613C30 5.43441 28.7384 4.06641 27.1875 4.06641ZM27.1875 6.09953C27.3149 6.09953 27.436 6.12819 27.5468 6.17823L15 17.9698L2.45313 6.17823C2.56391 6.12825 2.68508 6.09953 2.81246 6.09953H27.1875ZM27.1875 26.4308H2.81252C2.29525 26.4308 1.87499 25.9752 1.87499 25.4142V8.32625L14.3857 20.0833C14.5624 20.249 14.7812 20.3315 15 20.3315C15.2188 20.3315 15.4376 20.2491 15.6143 20.0833L28.125 8.32625V25.4143C28.1249 25.9752 27.7047 26.4308 27.1875 26.4308Z" fill="#E7BD97"/>
</g>
<defs>
<clipPath id="clip0">
<rect width="30" height="32.5301" fill="white"/>
</clipPath>
</defs>
</svg>
