<svg width="30" height="29" viewBox="0 0 30 29" fill="none" xmlns="http://www.w3.org/2000/svg">
<g clip-path="url(#clip0)">
<path d="M21.2855 0H8.71453C3.90932 0 0 3.73396 0 8.32363V20.3307C0 24.9203 3.90932 28.6543 8.71453 28.6543H21.2855C26.0907 28.6543 30 24.9203 30 20.3307V8.32363C30 3.73396 26.0907 0 21.2855 0ZM27.6562 20.3307C27.6562 23.686 24.7983 26.4157 21.2855 26.4157H8.71453C5.20166 26.4157 2.34375 23.686 2.34375 20.3307V8.32363C2.34375 4.96833 5.20166 2.23862 8.71453 2.23862H21.2855C24.7983 2.23862 27.6562 4.96833 27.6562 8.32363V20.3307Z" fill="#E7BD97"/>
<path d="M15 6.604C10.5414 6.604 6.91406 10.0686 6.91406 14.3272C6.91406 18.5859 10.5414 22.0505 15 22.0505C19.4586 22.0505 23.0859 18.5859 23.0859 14.3272C23.0859 10.0686 19.4586 6.604 15 6.604ZM15 19.8118C11.8338 19.8118 9.25781 17.3514 9.25781 14.3272C9.25781 11.303 11.8338 8.84262 15 8.84262C18.1662 8.84262 20.7422 11.303 20.7422 14.3272C20.7422 17.3514 18.1662 19.8118 15 19.8118Z" fill="#E7BD97"/>
<path d="M23.2031 7.61034C23.8503 7.61034 24.375 7.1094 24.375 6.49145C24.375 5.8735 23.8503 5.37256 23.2031 5.37256C22.5559 5.37256 22.0312 5.8735 22.0312 6.49145C22.0312 7.1094 22.5559 7.61034 23.2031 7.61034Z" fill="#E7BD97"/>
</g>
<defs>
<clipPath id="clip0">
<rect width="30" height="28.6543" fill="white"/>
</clipPath>
</defs>
</svg>
