<svg width="30" height="30" viewBox="0 0 30 30" fill="none" xmlns="http://www.w3.org/2000/svg">
<g clip-path="url(#clip0)">
<path d="M15.1812 24.373C19.5212 24.373 17.9737 21.6255 18.3087 20.8355C18.3037 20.2455 18.2987 19.678 18.3187 19.333C18.5937 19.4105 19.2425 19.7393 20.5825 21.0418C22.6512 23.1293 23.18 24.373 24.8512 24.373H27.9275C28.9025 24.373 29.41 23.9693 29.6637 23.6305C29.9087 23.303 30.1487 22.728 29.8862 21.833C29.2 19.678 25.1975 15.9568 24.9487 15.5643C24.9862 15.4918 25.0462 15.3955 25.0775 15.3455H25.075C25.865 14.3018 28.88 9.7843 29.3237 7.9768C29.325 7.9743 29.3262 7.97055 29.3262 7.9668C29.5662 7.1418 29.3462 6.6068 29.1187 6.3043C28.7762 5.8518 28.2312 5.62305 27.495 5.62305H24.4187C23.3887 5.62305 22.6075 6.1418 22.2125 7.08805C21.5512 8.7693 19.6937 12.2268 18.3012 13.4505C18.2587 11.7168 18.2875 10.393 18.31 9.4093C18.355 7.49055 18.5 5.62305 16.5087 5.62305H11.6737C10.4262 5.62305 9.2325 6.98555 10.525 8.60305C11.655 10.0205 10.9312 10.8105 11.175 14.743C10.225 13.7243 8.535 10.973 7.34 7.4568C7.005 6.50555 6.4975 5.6243 5.06875 5.6243H1.9925C0.745 5.6243 0 6.3043 0 7.44305C0 10.0005 5.66125 24.373 15.1812 24.373ZM5.06875 7.4993C5.34 7.4993 5.3675 7.4993 5.56875 8.07055C6.7925 11.6743 9.5375 17.0068 11.5425 17.0068C13.0487 17.0068 13.0487 15.463 13.0487 14.8818L13.0475 10.2543C12.965 8.72305 12.4075 7.96055 12.0412 7.49805L16.4262 7.50305C16.4287 7.5243 16.4012 12.6218 16.4387 13.8568C16.4387 15.6105 17.8312 16.6155 20.005 14.4155C22.2987 11.8268 23.885 7.9568 23.9487 7.7993C24.0425 7.5743 24.1237 7.49805 24.4187 7.49805H27.495H27.5075C27.5062 7.5018 27.5062 7.50555 27.505 7.5093C27.2237 8.8218 24.4475 13.0043 23.5187 14.303C23.5037 14.323 23.49 14.3443 23.4762 14.3655C23.0675 15.033 22.735 15.7705 23.5325 16.808H23.5337C23.6062 16.8955 23.795 17.1005 24.07 17.3855C24.925 18.268 27.8575 21.2855 28.1175 22.4855C27.945 22.513 27.7575 22.493 24.8512 22.4993C24.2325 22.4993 23.7487 21.5743 21.9025 19.7118C20.2425 18.0968 19.165 17.4368 18.1837 17.4368C16.2787 17.4368 16.4175 18.983 16.435 20.853C16.4412 22.8805 16.4287 22.2393 16.4425 22.3668C16.3312 22.4105 16.0125 22.498 15.1812 22.498C7.25 22.498 2.085 9.9093 1.88625 7.50305C1.955 7.4968 2.90125 7.50055 5.06875 7.4993Z" fill="#E7BD97"/>
</g>
<defs>
<clipPath id="clip0">
<rect width="30" height="30" fill="white"/>
</clipPath>
</defs>
</svg>
