<svg width="30" height="30" viewBox="0 0 30 30" fill="none" xmlns="http://www.w3.org/2000/svg">
<path d="M0.59124 24.4937C3.36874 26.2562 6.60124 27.1875 9.93874 27.1875C14.8262 27.1875 19.305 25.31 22.5512 21.9012C25.6575 18.6387 27.3662 14.255 27.2812 9.80624C28.4587 8.79874 29.8437 6.87499 29.8437 4.99999C29.8437 4.28124 29.0637 3.82499 28.4312 4.19124C27.325 4.84124 26.3162 5.01124 25.2787 4.71999C23.16 2.65499 20.0062 2.21999 17.3487 3.65249C15.0262 4.90249 13.735 7.18999 13.8512 9.68999C9.92749 9.21124 6.30249 7.24374 3.77499 4.18624C3.35999 3.68749 2.57249 3.74624 2.24249 4.31124C1.02499 6.39624 1.03749 8.81249 2.09624 10.7637C1.59249 10.8525 1.28124 11.2762 1.28124 11.735C1.28124 13.6962 2.16374 15.4987 3.58499 16.7287C3.31999 16.9837 3.23249 17.3625 3.34499 17.7C3.96999 19.5775 5.38499 21.045 7.15374 21.78C5.22999 22.6987 3.10249 23.005 1.20874 22.7725C0.22874 22.64 -0.25501 23.9575 0.59124 24.4937ZM10.195 22.1012C10.8962 21.5625 10.5237 20.44 9.64374 20.4212C8.09374 20.3887 6.68249 19.625 5.80374 18.4237C6.22749 18.3962 6.66624 18.3312 7.08374 18.2187C8.03499 17.9612 7.98999 16.5887 7.02374 16.395C5.26999 16.0425 3.89374 14.765 3.37749 13.12C3.84874 13.2362 4.32874 13.3012 4.80749 13.31C5.75624 13.315 6.11499 12.0987 5.34124 11.59C3.59749 10.4412 2.85374 8.41249 3.34624 6.50499C6.39124 9.58999 10.5225 11.4487 14.8925 11.6587C15.5187 11.6975 15.9887 11.1087 15.8512 10.5125C15.2575 7.93874 16.695 6.13499 18.2387 5.30374C19.7662 4.47874 22.2187 4.22124 24.0987 6.19374C24.6575 6.78249 26.5425 6.80499 27.5012 6.58124C27.0712 7.39124 26.41 8.15999 25.7912 8.59249C25.5275 8.77749 25.3762 9.08499 25.3925 9.40624C25.5937 13.5125 24.0637 17.595 21.195 20.6062C18.305 23.64 14.3087 25.3112 9.93999 25.3112C8.20249 25.3112 6.49874 25.0287 4.88874 24.4837C6.81374 24.1112 8.64249 23.2962 10.195 22.1012Z" fill="#E7BD97"/>
</svg>
