<svg width="32" height="30" viewBox="0 0 32 30" fill="none" xmlns="http://www.w3.org/2000/svg">
<path d="M16 0C7.72656 0 1 6.72656 1 15C1 17.4551 1.64453 19.752 2.69336 21.7969L1.07031 27.6211C0.689453 28.9746 2.03125 30.3105 3.38477 29.9297L9.20898 28.3066C11.2539 29.3496 13.5449 30 16 30C24.2734 30 31 23.2676 31 15C31 6.72656 24.2734 0 16 0ZM16 2.25C23.0547 2.25 28.75 7.94531 28.75 15C28.75 22.0547 23.0547 27.75 16 27.75C13.75 27.75 11.6406 27.1641 9.80664 26.1387C9.54883 25.998 9.24414 25.957 8.95703 26.0391L3.41406 27.5859L4.96094 22.0488C5.04297 21.7617 5.00781 21.457 4.86133 21.1992C3.83594 19.3594 3.25 17.25 3.25 15C3.25 7.94531 8.94531 2.25 16 2.25ZM10.9316 8.25C10.6914 8.25 10.3047 8.33789 9.97656 8.69531C9.64844 9.05273 8.72266 9.91992 8.72266 11.6836C8.72266 13.4473 10.0059 15.1465 10.1816 15.3867C10.3633 15.627 12.6602 19.3594 16.2988 20.7949C19.3281 21.9902 19.9434 21.75 20.5996 21.6914C21.2559 21.6328 22.7207 20.8242 23.0195 19.9863C23.3184 19.1484 23.3184 18.4336 23.2305 18.2871C23.1426 18.1406 22.9023 18.0469 22.5391 17.8711C22.1816 17.6895 20.4238 16.8223 20.0957 16.7051C19.7676 16.582 19.5273 16.5234 19.2871 16.8809C19.0527 17.2383 18.3613 18.0469 18.1562 18.2871C17.9453 18.5273 17.7344 18.5566 17.377 18.375C17.0195 18.1934 15.8652 17.8184 14.5 16.5996C13.4336 15.6504 12.7129 14.4785 12.5078 14.1211C12.2969 13.7637 12.4844 13.5645 12.666 13.3887C12.8242 13.2246 13.0234 12.9668 13.1992 12.7617C13.3809 12.5508 13.4395 12.4043 13.5566 12.1641C13.6738 11.9238 13.6152 11.7188 13.5273 11.5371C13.4395 11.3555 12.7422 9.58594 12.4258 8.87695C12.1563 8.2793 11.875 8.26758 11.6172 8.26172C11.4062 8.25 11.166 8.25 10.9316 8.25Z" fill="#E7BD97"/>
</svg>
